<?xml version="1.0" standalone="no"?>
<!DOCTYPE svg PUBLIC "-//W3C//DTD SVG 20010904//EN"
 "http://www.w3.org/TR/2001/REC-SVG-20010904/DTD/svg10.dtd">
<svg version="1.0" xmlns="http://www.w3.org/2000/svg"
 width="1024.000000pt" height="1024.000000pt" viewBox="0 0 1024.000000 1024.000000"
 preserveAspectRatio="xMidYMid meet">
<metadata>
Created by potrace 1.14, written by Peter Selinger 2001-2017
</metadata>
<g transform="translate(0.000000,1024.000000) scale(0.100000,-0.100000)"
fill="#000000" stroke="none">
<path d="M0 8320 l0 -640 640 0 640 0 0 -2560 0 -2560 -640 0 -640 0 0 -640 0
-640 5120 0 5120 0 0 640 0 640 -640 0 -640 0 0 2560 0 2560 640 0 640 0 0
640 0 640 -5120 0 -5120 0 0 -640z m7680 -3200 l0 -2560 -2560 0 -2560 0 0
2560 0 2560 2560 0 2560 0 0 -2560z"/>
<path d="M4480 5120 l0 -1920 640 0 640 0 0 1920 0 1920 -640 0 -640 0 0
-1920z"/>
</g>
</svg>
